PathFileType	4	(X/Y/Z)	Patient4_TMGait_0pt5_02_right_35.trc.trc
DataRate	CameraRate	NumFrames	NumMarkers	Units	OrigDataRate	OrigDataStartFrame	OrigNumFrames
77.777777777778	77.777777777778	4	33	mm	77.777777777778	36	       141
Frame#	Time	Sacral			L.Shoulder			Chest			R.Shoulder			Neck			R.ASIS			L.ASIS			R.Thigh.Superior			R.Thigh.Lateral			R.Thigh.Inferior			R.Patella			L.Thigh.Superior			L.Thigh.Lateral			L.Thigh.Inferior			L.Patella			L.Shank.Superior			L.Shank.Lateral			L.Shank.Inferior			R.Shank.Superior			R.Shank.Lateral			R.Shank.Inferior			R.Heel			R.Midfoot.Superior			R.Midfoot.Lateral			R.Toe			L.Heel			L.Midfoot.Lateral			L.Midfoot.Superior			L.Toe			L.Elbow			L.Wrist			R.Elbow			R.Wrist			
		X1	Y1	Z1	X2	Y2	Z2	X3	Y3	Z3	X4	Y4	Z4	X5	Y5	Z5	X6	Y6	Z6	X7	Y7	Z7	X8	Y8	Z8	X9	Y9	Z9	X10	Y10	Z10	X11	Y11	Z11	X12	Y12	Z12	X13	Y13	Z13	X14	Y14	Z14	X15	Y15	Z15	X16	Y16	Z16	X17	Y17	Z17	X18	Y18	Z18	X19	Y19	Z19	X20	Y20	Z20	X21	Y21	Z21	X22	Y22	Z22	X23	Y23	Z23	X24	Y24	Z24	X25	Y25	Z25	X26	Y26	Z26	X27	Y27	Z27	X28	Y28	Z28	X29	Y29	Z29	X30	Y30	Z30	X31	Y31	Z31	X32	Y32	Z32	X33	Y33	Z33	

36	46.190000000000	732.714990324586	1004.077345536006	500.005358755012	924.550345956866	1424.669264128425	316.072697024741	1015.449754375605	1357.014945655220	484.512957580049	923.423758947761	1435.366242136244	652.432348670431	916.578540101470	1489.989584779013	465.851823888134	956.760658035846	935.780574826075	621.121162841761	949.003303351685	957.220292755146	346.737729619567	1019.642113468696	749.104134562934	584.551014399620	953.422791236733	633.100770444277	645.800686437063	1034.109169073297	589.824978783164	562.490063943008	1045.714040015055	500.647437169877	568.462018639680	976.565283725988	735.202728667548	375.648356138691	882.505952216045	625.348333292810	311.961783045236	959.152836562674	537.521198205585	375.040715046120	948.346485257893	454.282060662084	375.378564163769	885.612079191693	395.328496310852	368.054905940454	752.821536582309	336.827380504003	314.093783576386	748.022882662174	210.921805135662	377.125596762176	1024.114643006619	410.415218928674	578.171184975516	961.811115907012	302.142537848877	641.826795333408	1010.772738894071	210.716419907397	578.668206232546	887.862996464246	42.108792936598	549.875659694099	1057.600863426515	99.163882324369	582.765884996908	972.223357279958	36.791146703431	623.778530175833	1179.116152048657	50.641943555334	609.151736471602	563.991436699079	118.464822270840	408.109538594312	634.714488109256	80.529516837962	336.111097668132	732.515700364792	111.701637996708	362.962535292668	832.324141999536	33.996406715293	350.700098688595	937.283405334063	1068.842504784630	200.850694548068	1115.063280016784	876.533859230395	198.757450554712	832.414586211761	1100.748356644305	771.184271442140	886.137545860181	845.331851992175	784.349117480350	
37	46.202857142857	733.046910964788	1003.967553285924	503.162250024567	922.562184631457	1425.757323926684	319.297837277240	1014.894562308743	1357.656999519925	486.831945766843	923.871747153601	1435.070036857981	655.686861698398	915.591138010921	1490.473889768163	469.487918906792	957.414695664189	936.475013483587	622.994947868287	948.593447334301	957.441971330450	348.767268275169	1018.910919325887	748.205680044294	587.764979350873	951.280238951195	633.016747017770	648.166218418137	1031.808929611969	589.206748085731	564.970066866959	1042.537173416628	499.965167619973	570.451418417992	981.796401928879	737.551132058800	378.179174133194	892.551665560428	625.003751748127	313.424848033536	972.269570882914	538.958049172650	376.340253017210	962.623859070940	454.243347026492	375.891018997394	897.500173945029	395.546149233532	368.671193079121	762.307837468622	342.668026563470	314.837337243794	752.910044617962	216.641681591682	376.866551067454	1020.282982799814	409.836155993768	579.853302381050	957.210871166763	301.770038315556	643.041535589982	1005.456058473237	210.266366885477	579.494172137130	881.492487915785	42.075529190507	550.021809946800	1051.332006626570	99.081320291455	583.037877171158	965.826709126482	36.709971611930	623.979031514460	1172.780195271750	50.450355154455	609.340044905765	565.026918717167	134.021535825540	407.522494512238	633.363445341313	91.450115373718	335.755316736462	732.937850535031	116.785644676870	362.361074006970	826.936197623719	33.142772618344	350.714980737670	931.739290177487	1069.313556070292	205.201207178240	1099.598853129329	868.111101998023	201.814236747519	843.192821297562	1097.167160489316	774.735047258202	908.645850691326	844.391936393368	785.801666341492	
38	46.215714285714	733.210597700808	1003.787031081936	506.150684673416	920.326865560065	1426.667571999372	322.356609568433	1014.225053400510	1358.176495591732	488.935594190763	924.301244453595	1434.659520970874	658.784485039528	914.487749688804	1490.831457788653	472.936720341934	957.857933687504	937.062416801388	624.798366603634	947.952257973471	957.383681142712	350.809542790150	1018.022065346534	747.283995377083	591.153831910136	948.931341895499	632.881130136067	650.609412621236	1029.424221882521	588.565130074382	567.663434779237	1039.271573889905	499.285108962708	572.711927724294	986.844977717669	740.094485885189	380.554614627090	902.461219801425	625.100563618717	314.586102624133	985.108648129457	540.950551238156	377.292405890908	976.792280352959	454.882005695205	376.159111624927	909.578036835272	396.314597666099	369.056536163766	772.255569629931	348.823640837998	315.457440453561	758.518748693932	222.854821925699	376.652383437319	1016.364633218853	409.238108801529	581.697999837214	952.483081788271	301.358298302235	644.338104335665	1000.087944668719	209.799866612538	580.418986895082	875.071919045007	42.050336585456	550.171324581193	1045.067068538921	98.930285580201	583.369145835732	959.374141574405	36.614036160101	624.188262523913	1166.414274960232	50.112424767812	609.549675894003	567.326436461080	149.871839471269	407.169815347214	633.141020222846	103.006882613127	335.528584578008	734.249983926111	122.555573789334	361.898282868837	822.445539812345	32.456320286524	350.632713508245	925.979955156676	1069.617653759007	209.457313040898	1083.473306963178	860.126733938253	204.747483207569	854.460867653685	1093.870689171927	778.278401079579	931.557845247173	844.247349838459	786.910057836423	
39	46.228571428571	733.190950980276	1003.592477352390	508.941144758704	917.917686455114	1427.443402643133	325.243276081142	1013.461954203593	1358.601825193779	490.833551087146	924.719598676881	1434.184716230645	661.717567232766	913.318553861003	1491.105155516065	476.183874498235	958.103820732220	937.582066064884	626.557270375382	947.107732525489	957.112019478962	352.858893918162	1017.001968874146	746.415456288294	594.583636872532	946.453809514172	632.738711054836	653.054941347058	1026.992471329525	587.933078581715	570.461246720624	1035.947776299114	498.626704082250	575.146284771873	991.600646750447	742.847144880649	382.751302195027	912.022665490970	625.702330842270	315.447527908272	997.440193655975	543.537235102377	377.864250362762	990.634828631601	456.244884383277	376.111255515431	921.653248302716	397.663750014892	369.172421037748	782.475715062422	355.123515824079	315.959860144538	764.835879336287	229.335125160369	376.500287668963	1012.391068261157	408.649586334884	583.636037572831	947.666016966017	300.952037641263	645.685533408245	994.689830848639	209.344686228358	581.412560608619	868.620184471427	42.041275536909	550.334658360294	1038.814499573347	98.746617629938	583.752080216589	952.889687315482	36.517670333350	624.408557087530	1160.034345727140	49.668591774411	609.776884034632	570.948260067592	165.322954699310	407.133157792014	634.232504373865	114.680741412427	335.484372645575	736.610258013580	128.788407012975	361.584652645079	819.286603342931	32.040843808034	350.421259924348	919.963243780295	1069.805144701937	213.599031402554	1066.748048975119	852.710665968931	207.569061596437	866.173401129083	1090.938998148180	781.744739754665	954.722788642771	844.971164670763	787.647612525454	
